<?xml version="1.0" encoding="UTF-8" standalone="no" ?>
<svg xmlns="http://www.w3.org/2000/svg" xmlns:xlink="http://www.w3.org/1999/xlink" version="1.1" width="1080" height="1080" viewBox="0 0 1080 1080" xml:space="preserve">
<desc>Created with Fabric.js 5.2.4</desc>
<defs>
</defs>
<rect x="0" y="0" width="100%" height="100%" fill="transparent"></rect>
<g transform="matrix(1 0 0 1 540 540)" id="acf98035-5b61-4aee-900f-be9f58060429"  >
<rect style="stroke: none; stroke-width: 1; stroke-dasharray: none; stroke-linecap: butt; stroke-dashoffset: 0; stroke-linejoin: miter; stroke-miterlimit: 4; fill: rgb(255,255,255); fill-rule: nonzero; opacity: 1; visibility: hidden;" vector-effect="non-scaling-stroke"  x="-540" y="-540" rx="0" ry="0" width="1080" height="1080" />
</g>
<g transform="matrix(1 0 0 1 540 540)" id="2668ddd3-e2d1-4238-8b80-a54bf0615dc3"  >
</g>
<g transform="matrix(1 0 0 1 540 404.11)"  >
<path style="stroke: rgb(0,0,0); stroke-width: 0; stroke-dasharray: none; stroke-linecap: butt; stroke-dashoffset: 0; stroke-linejoin: miter; stroke-miterlimit: 4; fill: rgb(254,8,8); fill-rule: nonzero; opacity: 1;" vector-effect="non-scaling-stroke"  transform=" translate(-256, -256)" d="M 176 24 C 176 10.7 165.3 0 152 0 C 138.7 0 128 10.7 128 24 L 128 64 C 92.7 64 64 92.7 64 128 L 24 128 C 10.7 128 0 138.7 0 152 C 0 165.3 10.7 176 24 176 L 64 176 L 64 232 L 24 232 C 10.7 232 0 242.7 0 256 C 0 269.3 10.7 280 24 280 L 64 280 L 64 336 L 24 336 C 10.7 336 0 346.7 0 360 C 0 373.3 10.7 384 24 384 L 64 384 C 64 419.3 92.7 448 128 448 L 128 488 C 128 501.3 138.7 512 152 512 C 165.3 512 176 501.3 176 488 L 176 448 L 232 448 L 232 488 C 232 501.3 242.7 512 256 512 C 269.3 512 280 501.3 280 488 L 280 448 L 336 448 L 336 488 C 336 501.3 346.7 512 360 512 C 373.3 512 384 501.3 384 488 L 384 448 C 419.3 448 448 419.3 448 384 L 488 384 C 501.3 384 512 373.3 512 360 C 512 346.7 501.3 336 488 336 L 448 336 L 448 280 L 488 280 C 501.3 280 512 269.3 512 256 C 512 242.7 501.3 232 488 232 L 448 232 L 448 176 L 488 176 C 501.3 176 512 165.3 512 152 C 512 138.7 501.3 128 488 128 L 448 128 C 448 92.7 419.3 64 384 64 L 384 24 C 384 10.7 373.3 0 360 0 C 346.7 0 336 10.7 336 24 L 336 64 L 280 64 L 280 24 C 280 10.7 269.3 0 256 0 C 242.7 0 232 10.7 232 24 L 232 64 L 176 64 L 176 24 z M 160 128 L 352 128 C 369.7 128 384 142.3 384 160 L 384 352 C 384 369.7 369.7 384 352 384 L 160 384 C 142.3 384 128 369.7 128 352 L 128 160 C 128 142.3 142.3 128 160 128 z M 352 160 L 160 160 L 160 352 L 352 352 L 352 160 z" stroke-linecap="round" />
</g>
<g transform="matrix(-0.49 0 0 -0.49 614.43 750.23)"  >
<path style="stroke: rgb(0,0,0); stroke-width: 0; stroke-dasharray: none; stroke-linecap: butt; stroke-dashoffset: 0; stroke-linejoin: miter; stroke-miterlimit: 4; fill: rgb(254,8,8); fill-rule: nonzero; opacity: 1;" vector-effect="non-scaling-stroke"  transform=" translate(-223.99, -256)" d="M 438.6 278.6 C 451.1 266.1 451.1 245.8 438.6 233.3 L 278.6 73.30000000000001 C 266.1 60.80000000000001 245.8 60.80000000000001 233.3 73.30000000000001 C 220.8 85.80000000000001 220.8 106.10000000000001 233.3 118.60000000000001 L 338.8 224 L 32 224 C 14.3 224 0 238.3 0 256 C 0 273.7 14.3 288 32 288 L 338.7 288 L 233.4 393.4 C 220.9 405.9 220.9 426.2 233.4 438.7 C 245.9 451.2 266.2 451.2 278.7 438.7 L 438.7 278.7 z" stroke-linecap="round" />
</g>
<g transform="matrix(0.49 0 0 0.49 756.73 815.67)"  >
<path style="stroke: rgb(0,0,0); stroke-width: 0; stroke-dasharray: none; stroke-linecap: butt; stroke-dashoffset: 0; stroke-linejoin: miter; stroke-miterlimit: 4; fill: rgb(254,8,8); fill-rule: nonzero; opacity: 1;" vector-effect="non-scaling-stroke"  transform=" translate(-223.99, -256)" d="M 438.6 278.6 C 451.1 266.1 451.1 245.8 438.6 233.3 L 278.6 73.30000000000001 C 266.1 60.80000000000001 245.8 60.80000000000001 233.3 73.30000000000001 C 220.8 85.80000000000001 220.8 106.10000000000001 233.3 118.60000000000001 L 338.8 224 L 32 224 C 14.3 224 0 238.3 0 256 C 0 273.7 14.3 288 32 288 L 338.7 288 L 233.4 393.4 C 220.9 405.9 220.9 426.2 233.4 438.7 C 245.9 451.2 266.2 451.2 278.7 438.7 L 438.7 278.7 z" stroke-linecap="round" />
</g>
<g transform="matrix(0 0 0 0 0 0)"  >
<g style=""   >
</g>
</g>
<g transform="matrix(0 0 0 0 0 0)"  >
<g style=""   >
</g>
</g>
<g transform="matrix(0 0 0 0 0 0)"  >
<g style=""   >
</g>
</g>
<g transform="matrix(0 0 0 0 0 0)"  >
<g style=""   >
</g>
</g>
<g transform="matrix(0 0 0 0 0 0)"  >
<g style=""   >
</g>
</g>
<g transform="matrix(0 0 0 0 0 0)"  >
<g style=""   >
</g>
</g>
<g transform="matrix(0 0 0 0 0 0)"  >
<g style=""   >
</g>
</g>
<g transform="matrix(NaN NaN NaN NaN 0 0)"  >
<g style=""   >
</g>
</g>
<g transform="matrix(NaN NaN NaN NaN 0 0)"  >
<g style=""   >
</g>
</g>
<g transform="matrix(NaN NaN NaN NaN 0 0)"  >
<g style=""   >
</g>
</g>
<g transform="matrix(NaN NaN NaN NaN 0 0)"  >
<g style=""   >
</g>
</g>
<g transform="matrix(NaN NaN NaN NaN 0 0)"  >
<g style=""   >
</g>
</g>
<g transform="matrix(NaN NaN NaN NaN 0 0)"  >
<g style=""   >
</g>
</g>
<g transform="matrix(NaN NaN NaN NaN 0 0)"  >
<g style=""   >
</g>
</g>
<g transform="matrix(NaN NaN NaN NaN 0 0)"  >
<g style=""   >
</g>
</g>
<g transform="matrix(NaN NaN NaN NaN 0 0)"  >
<g style=""   >
</g>
</g>
<g transform="matrix(NaN NaN NaN NaN 0 0)"  >
<g style=""   >
</g>
</g>
<g transform="matrix(NaN NaN NaN NaN 0 0)"  >
<g style=""   >
</g>
</g>
<g transform="matrix(NaN NaN NaN NaN 0 0)"  >
<g style=""   >
</g>
</g>
<g transform="matrix(0.35 0 0 0.35 304.94 657.19)" id="fff1e129-64c7-4c40-b450-a0332c2a038b"  >
<path style="stroke: rgb(0,0,0); stroke-width: 0; stroke-dasharray: none; stroke-linecap: butt; stroke-dashoffset: 0; stroke-linejoin: miter; stroke-miterlimit: 4; fill: rgb(254,8,8); fill-rule: nonzero; opacity: 1;" vector-effect="non-scaling-stroke"  transform=" translate(-192, -256)" d="M 342.6 150.6 C 355.1 138.1 355.1 117.8 342.6 105.3 C 330.1 92.8 309.8 92.8 297.3 105.3 L 192 210.7 L 86.6 105.4 C 74.1 92.9 53.8 92.9 41.3 105.4 C 28.799999999999997 117.9 28.799999999999997 138.2 41.3 150.7 L 146.7 256 L 41.4 361.4 C 28.9 373.9 28.9 394.2 41.4 406.7 C 53.9 419.2 74.19999999999999 419.2 86.69999999999999 406.7 L 192 301.3 L 297.4 406.6 C 309.9 419.1 330.2 419.1 342.7 406.6 C 355.2 394.1 355.2 373.8 342.7 361.3 L 237.3 256 L 342.6 150.6 z" stroke-linecap="round" />
</g>
<g transform="matrix(NaN NaN NaN NaN 0 0)"  >
<g style=""   >
</g>
</g>
<g transform="matrix(NaN NaN NaN NaN 0 0)"  >
<g style=""   >
</g>
</g>
</svg>